<svg width="29" height="29" viewBox="0 0 29 29" fill="none" xmlns="http://www.w3.org/2000/svg">
<circle cx="14.5" cy="14.5" r="14" fill="#FEA946" stroke="white"/>
<path d="M11.868 16.14H8.22L7.548 18H6.396L9.42 9.684H10.68L13.692 18H12.54L11.868 16.14ZM11.556 15.252L10.044 11.028L8.532 15.252H11.556ZM21.3459 12.06C21.1139 11.572 20.7779 11.196 20.3379 10.932C19.8979 10.66 19.3859 10.524 18.8019 10.524C18.2179 10.524 17.6899 10.66 17.2179 10.932C16.7539 11.196 16.3859 11.58 16.1139 12.084C15.8499 12.58 15.7179 13.156 15.7179 13.812C15.7179 14.468 15.8499 15.044 16.1139 15.54C16.3859 16.036 16.7539 16.42 17.2179 16.692C17.6899 16.956 18.2179 17.088 18.8019 17.088C19.6179 17.088 20.2899 16.844 20.8179 16.356C21.3459 15.868 21.6539 15.208 21.7419 14.376H18.4059V13.488H22.9059V14.328C22.8419 15.016 22.6259 15.648 22.2579 16.224C21.8899 16.792 21.4059 17.244 20.8059 17.58C20.2059 17.908 19.5379 18.072 18.8019 18.072C18.0259 18.072 17.3179 17.892 16.6779 17.532C16.0379 17.164 15.5299 16.656 15.1539 16.008C14.7859 15.36 14.6019 14.628 14.6019 13.812C14.6019 12.996 14.7859 12.264 15.1539 11.616C15.5299 10.96 16.0379 10.452 16.6779 10.092C17.3179 9.724 18.0259 9.54 18.8019 9.54C19.6899 9.54 20.4739 9.76 21.1539 10.2C21.8419 10.64 22.3419 11.26 22.6539 12.06H21.3459Z" fill="white"/>
</svg>
