<svg width="139" height="24" viewBox="0 0 139 24" fill="none" xmlns="http://www.w3.org/2000/svg">
<path d="M21 16V7.99999C20.9996 7.64927 20.9071 7.3048 20.7315 7.00116C20.556 6.69751 20.3037 6.44536 20 6.26999L13 2.26999C12.696 2.09446 12.3511 2.00204 12 2.00204C11.6489 2.00204 11.304 2.09446 11 2.26999L4 6.26999C3.69626 6.44536 3.44398 6.69751 3.26846 7.00116C3.09294 7.3048 3.00036 7.64927 3 7.99999V16C3.00036 16.3507 3.09294 16.6952 3.26846 16.9988C3.44398 17.3025 3.69626 17.5546 4 17.73L11 21.73C11.304 21.9055 11.6489 21.9979 12 21.9979C12.3511 21.9979 12.696 21.9055 13 21.73L20 17.73C20.3037 17.5546 20.556 17.3025 20.7315 16.9988C20.9071 16.6952 20.9996 16.3507 21 16Z" stroke="black" stroke-linecap="round" stroke-linejoin="round"/>
<path d="M7.5 4.20999L12 6.80999L16.5 4.20999" stroke="black" stroke-linecap="round" stroke-linejoin="round"/>
<path d="M7.5 19.79V14.6L3 12" stroke="black" stroke-linecap="round" stroke-linejoin="round"/>
<path d="M21 12L16.5 14.6V19.79" stroke="black" stroke-linecap="round" stroke-linejoin="round"/>
<path d="M3.27002 6.95999L12 12.01L20.73 6.95999" stroke="#1A87D7" stroke-linecap="round" stroke-linejoin="round"/>
<path d="M12 22.08V12" stroke="#1A87D7" stroke-linecap="round" stroke-linejoin="round"/>
<path d="M49.552 10.384C49.552 11.0347 49.4027 11.632 49.104 12.176C48.8053 12.7093 48.3467 13.1413 47.728 13.472C47.1093 13.8027 46.3413 13.968 45.424 13.968H43.728V18H40.992V6.768H45.424C46.32 6.768 47.0773 6.92267 47.696 7.232C48.3147 7.54133 48.7787 7.968 49.088 8.512C49.3973 9.056 49.552 9.68 49.552 10.384ZM45.216 11.792C45.7387 11.792 46.128 11.6693 46.384 11.424C46.64 11.1787 46.768 10.832 46.768 10.384C46.768 9.936 46.64 9.58933 46.384 9.344C46.128 9.09867 45.7387 8.976 45.216 8.976H43.728V11.792H45.216ZM53.7124 10.56C54.0324 10.0693 54.4324 9.68533 54.9124 9.408C55.3924 9.12 55.9257 8.976 56.5124 8.976V11.872H55.7604C55.0777 11.872 54.5657 12.0213 54.2244 12.32C53.883 12.608 53.7124 13.12 53.7124 13.856V18H50.9764V9.072H53.7124V10.56ZM61.8841 18.128C61.0095 18.128 60.2201 17.9413 59.5161 17.568C58.8228 17.1947 58.2735 16.6613 57.8681 15.968C57.4735 15.2747 57.2761 14.464 57.2761 13.536C57.2761 12.6187 57.4788 11.8133 57.8841 11.12C58.2895 10.416 58.8441 9.87733 59.5481 9.504C60.2521 9.13067 61.0415 8.944 61.9161 8.944C62.7908 8.944 63.5801 9.13067 64.2841 9.504C64.9881 9.87733 65.5428 10.416 65.9481 11.12C66.3535 11.8133 66.5561 12.6187 66.5561 13.536C66.5561 14.4533 66.3481 15.264 65.9321 15.968C65.5268 16.6613 64.9668 17.1947 64.2521 17.568C63.5481 17.9413 62.7588 18.128 61.8841 18.128ZM61.8841 15.76C62.4068 15.76 62.8495 15.568 63.2121 15.184C63.5855 14.8 63.7721 14.2507 63.7721 13.536C63.7721 12.8213 63.5908 12.272 63.2281 11.888C62.8761 11.504 62.4388 11.312 61.9161 11.312C61.3828 11.312 60.9401 11.504 60.5881 11.888C60.2361 12.2613 60.0601 12.8107 60.0601 13.536C60.0601 14.2507 60.2308 14.8 60.5721 15.184C60.9241 15.568 61.3615 15.76 61.8841 15.76ZM84.1183 6.768V18H81.3823V11.264L78.8703 18H76.6623L74.1343 11.248V18H71.3983V6.768H74.6302L77.7823 14.544L80.9023 6.768H84.1183ZM85.5418 13.52C85.5418 12.6027 85.7124 11.7973 86.0538 11.104C86.4058 10.4107 86.8804 9.87733 87.4778 9.504C88.0751 9.13067 88.7418 8.944 89.4778 8.944C90.1071 8.944 90.6564 9.072 91.1258 9.328C91.6058 9.584 91.9738 9.92 92.2298 10.336V9.072H94.9658V18H92.2298V16.736C91.9631 17.152 91.5898 17.488 91.1098 17.744C90.6404 18 90.0911 18.128 89.4618 18.128C88.7364 18.128 88.0751 17.9413 87.4778 17.568C86.8804 17.184 86.4058 16.6453 86.0538 15.952C85.7124 15.248 85.5418 14.4373 85.5418 13.52ZM92.2298 13.536C92.2298 12.8533 92.0378 12.3147 91.6538 11.92C91.2804 11.5253 90.8218 11.328 90.2778 11.328C89.7338 11.328 89.2698 11.5253 88.8858 11.92C88.5124 12.304 88.3258 12.8373 88.3258 13.52C88.3258 14.2027 88.5124 14.7467 88.8858 15.152C89.2698 15.5467 89.7338 15.744 90.2778 15.744C90.8218 15.744 91.2804 15.5467 91.6538 15.152C92.0378 14.7573 92.2298 14.2187 92.2298 13.536ZM102.385 8.976C103.43 8.976 104.262 9.31733 104.881 10C105.51 10.672 105.825 11.6 105.825 12.784V18H103.105V13.152C103.105 12.5547 102.95 12.0907 102.641 11.76C102.332 11.4293 101.916 11.264 101.393 11.264C100.87 11.264 100.454 11.4293 100.145 11.76C99.8358 12.0907 99.6811 12.5547 99.6811 13.152V18H96.9451V9.072H99.6811V10.256C99.9585 9.86133 100.332 9.552 100.801 9.328C101.27 9.09333 101.798 8.976 102.385 8.976ZM107.182 13.52C107.182 12.6027 107.353 11.7973 107.694 11.104C108.046 10.4107 108.521 9.87733 109.118 9.504C109.716 9.13067 110.382 8.944 111.118 8.944C111.748 8.944 112.297 9.072 112.766 9.328C113.246 9.584 113.614 9.92 113.87 10.336V9.072H116.606V18H113.87V16.736C113.604 17.152 113.23 17.488 112.75 17.744C112.281 18 111.732 18.128 111.102 18.128C110.377 18.128 109.716 17.9413 109.118 17.568C108.521 17.184 108.046 16.6453 107.694 15.952C107.353 15.248 107.182 14.4373 107.182 13.52ZM113.87 13.536C113.87 12.8533 113.678 12.3147 113.294 11.92C112.921 11.5253 112.462 11.328 111.918 11.328C111.374 11.328 110.91 11.5253 110.526 11.92C110.153 12.304 109.966 12.8373 109.966 13.52C109.966 14.2027 110.153 14.7467 110.526 15.152C110.91 15.5467 111.374 15.744 111.918 15.744C112.462 15.744 112.921 15.5467 113.294 15.152C113.678 14.7573 113.87 14.2187 113.87 13.536ZM121.978 8.944C122.607 8.944 123.156 9.072 123.626 9.328C124.106 9.584 124.474 9.92 124.73 10.336V9.072H127.466V17.984C127.466 18.8053 127.3 19.5467 126.97 20.208C126.65 20.88 126.154 21.4133 125.482 21.808C124.82 22.2027 123.994 22.4 123.002 22.4C121.679 22.4 120.607 22.0853 119.786 21.456C118.964 20.8373 118.495 19.9947 118.378 18.928H121.082C121.167 19.2693 121.37 19.536 121.69 19.728C122.01 19.9307 122.404 20.032 122.874 20.032C123.439 20.032 123.887 19.8667 124.218 19.536C124.559 19.216 124.73 18.6987 124.73 17.984V16.72C124.463 17.136 124.095 17.4773 123.626 17.744C123.156 18 122.607 18.128 121.978 18.128C121.242 18.128 120.575 17.9413 119.978 17.568C119.38 17.184 118.906 16.6453 118.554 15.952C118.212 15.248 118.042 14.4373 118.042 13.52C118.042 12.6027 118.212 11.7973 118.554 11.104C118.906 10.4107 119.38 9.87733 119.978 9.504C120.575 9.13067 121.242 8.944 121.978 8.944ZM124.73 13.536C124.73 12.8533 124.538 12.3147 124.154 11.92C123.78 11.5253 123.322 11.328 122.778 11.328C122.234 11.328 121.77 11.5253 121.386 11.92C121.012 12.304 120.826 12.8373 120.826 13.52C120.826 14.2027 121.012 14.7467 121.386 15.152C121.77 15.5467 122.234 15.744 122.778 15.744C123.322 15.744 123.78 15.5467 124.154 15.152C124.538 14.7573 124.73 14.2187 124.73 13.536ZM137.861 13.392C137.861 13.648 137.845 13.9147 137.813 14.192H131.621C131.664 14.7467 131.84 15.1733 132.149 15.472C132.469 15.76 132.858 15.904 133.317 15.904C134 15.904 134.474 15.616 134.741 15.04H137.653C137.504 15.6267 137.232 16.1547 136.837 16.624C136.453 17.0933 135.968 17.4613 135.381 17.728C134.794 17.9947 134.138 18.128 133.413 18.128C132.538 18.128 131.76 17.9413 131.077 17.568C130.394 17.1947 129.861 16.6613 129.477 15.968C129.093 15.2747 128.901 14.464 128.901 13.536C128.901 12.608 129.088 11.7973 129.461 11.104C129.845 10.4107 130.378 9.87733 131.061 9.504C131.744 9.13067 132.528 8.944 133.413 8.944C134.277 8.944 135.045 9.12533 135.717 9.488C136.389 9.85067 136.912 10.368 137.285 11.04C137.669 11.712 137.861 12.496 137.861 13.392ZM135.061 12.672C135.061 12.2027 134.901 11.8293 134.581 11.552C134.261 11.2747 133.861 11.136 133.381 11.136C132.922 11.136 132.533 11.2693 132.213 11.536C131.904 11.8027 131.712 12.1813 131.637 12.672H135.061Z" fill="black"/>
</svg>
