<svg width="22" height="22" viewBox="0 0 22 22" fill="none" xmlns="http://www.w3.org/2000/svg">
<path d="M11 21C16.5228 21 21 16.5228 21 11C21 5.47715 16.5228 1 11 1C5.47715 1 1 5.47715 1 11C1 16.5228 5.47715 21 11 21Z" stroke="black" stroke-width="1.5" stroke-linecap="round" stroke-linejoin="round"/>
<path d="M8.09003 7.99999C8.32513 7.33166 8.78918 6.7681 9.39998 6.40912C10.0108 6.05015 10.7289 5.91893 11.4272 6.0387C12.1255 6.15848 12.7588 6.52151 13.2151 7.06352C13.6714 7.60552 13.9211 8.29151 13.92 8.99999C13.92 11 10.92 12 10.92 12" stroke="black" stroke-width="1.5" stroke-linecap="round" stroke-linejoin="round"/>
<path d="M11 16H11.01" stroke="black" stroke-width="1.5" stroke-linecap="round" stroke-linejoin="round"/>
</svg>
